<?xml version="1.0" encoding="utf-8"?>
<svg xmlns="http://www.w3.org/2000/svg" xmlns:xlink="http://www.w3.org/1999/xlink" width="674" height="226">
  <path fill="#0A0A0A" transform="translate(337 113)" d="M-337 -113L337 -113L337 113L-337 113L-337 -113Z"></path>
  <defs>
    <linearGradient id="gradient_0" gradientUnits="userSpaceOnUse" x1="0" y1="33.450912" x2="396.56348" y2="33.450912">
      <stop offset="0" stop-color="white"></stop>
      <stop offset="0.5" stop-color="#878787"></stop>
      <stop offset="1" stop-color="#82A473"></stop>
    </linearGradient>
  </defs>
  <path fill="url(#gradient_0)" transform="translate(238 81)" d="M1.76872 51.001L10.947 14.501L19.0153 14.501L28.2313 51.001L21.8677 51.001L19.848 42.1493L10.1728 42.1493L8.15304 51.001L1.76872 51.001ZM11.2775 37.0622L18.6932 37.0622L16.5075 27.2455C16.1497 25.6192 15.8354 24.143 15.5646 22.8169C15.2939 21.4908 15.1057 20.5331 15 19.9438C14.8943 20.5331 14.7159 21.486 14.4646 22.8023C14.2134 24.1186 13.8991 25.583 13.5218 27.1955L11.2775 37.0622ZM35.0236 51.001L35.0236 45.4969L42.3566 45.4969L42.3566 20.005L35.0236 20.005L35.0236 14.501L55.9862 14.501L55.9862 20.005L48.6532 20.005L48.6532 45.4969L55.9862 45.4969L55.9862 51.001L35.0236 51.001ZM95.5334 51.001L95.5334 14.4802L118.203 14.4802L118.203 20.2768L101.688 20.2768L101.688 30.0575L116.903 30.0575L116.903 35.854L101.788 35.854L101.788 51.001L95.5334 51.001ZM137.02 51.501C134.683 51.501 132.66 51.0599 130.95 50.1778C129.24 49.2958 127.921 48.0436 126.993 46.4212C126.064 44.7989 125.601 42.8946 125.601 40.7085L125.601 24.7935C125.601 22.5935 126.064 20.6858 126.993 19.0704C127.921 17.4549 129.24 16.2062 130.95 15.3241C132.66 14.442 134.683 14.001 137.02 14.001C139.376 14.001 141.404 14.442 143.104 15.3241C144.804 16.2062 146.119 17.4549 147.047 19.0704C147.975 20.6858 148.439 22.5866 148.439 24.7727L148.439 40.7085C148.439 42.8946 147.975 44.7989 147.047 46.4212C146.119 48.0436 144.804 49.2958 143.104 50.1778C141.404 51.0599 139.376 51.501 137.02 51.501ZM137.02 46.0177C138.713 46.0177 139.997 45.5568 140.872 44.6352C141.746 43.7135 142.184 42.4046 142.184 40.7085L142.184 24.7935C142.184 23.0778 141.751 21.7641 140.886 20.8521C140.022 19.9402 138.733 19.4843 137.02 19.4843C135.32 19.4843 134.035 19.9402 133.163 20.8521C132.291 21.7641 131.856 23.0778 131.856 24.7935L131.856 40.7085C131.856 42.4046 132.296 43.7135 133.178 44.6352C134.059 45.5568 135.34 46.0177 137.02 46.0177ZM167.524 51.501C163.949 51.501 161.159 50.5252 159.154 48.5736C157.149 46.622 156.147 43.9613 156.147 40.5915L156.147 14.501L162.402 14.501L162.402 40.5622C162.402 42.2892 162.835 43.6336 163.701 44.5956C164.568 45.5575 165.842 46.0384 167.524 46.0384C169.173 46.0384 170.439 45.5575 171.322 44.5956C172.205 43.6336 172.647 42.2892 172.647 40.5622L172.647 14.501L178.902 14.501L178.902 40.5915C178.902 43.9556 177.903 46.6149 175.905 48.5693C173.907 50.5238 171.114 51.501 167.524 51.501ZM186.652 51.001L186.652 14.501L194.261 14.501L204.416 43.9959C204.33 42.9286 204.23 41.6696 204.118 40.2189C204.005 38.7682 203.914 37.2899 203.845 35.7839C203.775 34.2779 203.741 32.9444 203.741 31.7834L203.741 14.501L209.407 14.501L209.407 51.001L201.798 51.001L191.722 21.506C191.808 22.462 191.894 23.6215 191.98 24.9844C192.066 26.3474 192.144 27.7477 192.214 29.1854C192.283 30.6232 192.318 31.9392 192.318 33.1336L192.318 51.001L186.652 51.001ZM217.286 51.001L217.286 14.501L228.14 14.501C230.604 14.501 232.743 14.9705 234.557 15.9095C236.372 16.8485 237.783 18.1688 238.791 19.8704C239.8 21.5719 240.304 23.5784 240.304 25.8897L240.304 39.5622C240.304 41.854 239.8 43.8591 238.791 45.5773C237.783 47.2956 236.372 48.6291 234.557 49.5779C232.743 50.5266 230.604 51.001 228.14 51.001L217.286 51.001ZM223.541 45.2459L228.14 45.2459C229.95 45.2459 231.387 44.7365 232.452 43.7177C233.517 42.6988 234.049 41.3137 234.049 39.5622L234.049 25.8897C234.049 24.1716 233.517 22.8031 232.452 21.7843C231.387 20.7655 229.95 20.256 228.14 20.256L223.541 20.256L223.541 45.2459ZM245.808 51.001L254.986 14.501L263.054 14.501L272.27 51.001L265.907 51.001L263.887 42.1493L254.212 42.1493L252.192 51.001L245.808 51.001ZM255.317 37.0622L262.732 37.0622L260.547 27.2455C260.189 25.6192 259.874 24.143 259.604 22.8169C259.333 21.4908 259.145 20.5331 259.039 19.9438C258.933 20.5331 258.755 21.486 258.504 22.8023C258.252 24.1186 257.938 25.583 257.561 27.1955L255.317 37.0622ZM286.416 51.001L286.416 20.2768L276.855 20.2768L276.855 14.4802L302.233 14.4802L302.233 20.2768L292.671 20.2768L292.671 51.001L286.416 51.001ZM309.568 51.001L309.568 45.4969L316.901 45.4969L316.901 20.005L309.568 20.005L309.568 14.501L330.53 14.501L330.53 20.005L323.197 20.005L323.197 45.4969L330.53 45.4969L330.53 51.001L309.568 51.001ZM350.554 51.501C348.217 51.501 346.194 51.0599 344.484 50.1778C342.774 49.2958 341.455 48.0436 340.527 46.4212C339.599 44.7989 339.135 42.8946 339.135 40.7085L339.135 24.7935C339.135 22.5935 339.599 20.6858 340.527 19.0704C341.455 17.4549 342.774 16.2062 344.484 15.3241C346.194 14.442 348.217 14.001 350.554 14.001C352.91 14.001 354.938 14.442 356.638 15.3241C358.339 16.2062 359.653 17.4549 360.581 19.0704C361.509 20.6858 361.973 22.5866 361.973 24.7727L361.973 40.7085C361.973 42.8946 361.509 44.7989 360.581 46.4212C359.653 48.0436 358.339 49.2958 356.638 50.1778C354.938 51.0599 352.91 51.501 350.554 51.501ZM350.554 46.0177C352.247 46.0177 353.531 45.5568 354.406 44.6352C355.28 43.7135 355.718 42.4046 355.718 40.7085L355.718 24.7935C355.718 23.0778 355.285 21.7641 354.421 20.8521C353.556 19.9402 352.267 19.4843 350.554 19.4843C348.854 19.4843 347.569 19.9402 346.697 20.8521C345.826 21.7641 345.39 23.0778 345.39 24.7935L345.39 40.7085C345.39 42.4046 345.83 43.7135 346.712 44.6352C347.593 45.5568 348.874 46.0177 350.554 46.0177ZM369.681 51.001L369.681 14.501L377.29 14.501L387.445 43.9959C387.359 42.9286 387.26 41.6696 387.147 40.2189C387.035 38.7682 386.944 37.2899 386.874 35.7839C386.805 34.2779 386.77 32.9444 386.77 31.7834L386.77 14.501L392.436 14.501L392.436 51.001L384.827 51.001L374.751 21.506C374.837 22.462 374.923 23.6215 375.01 24.9844C375.096 26.3474 375.174 27.7477 375.243 29.1854C375.313 30.6232 375.347 31.9392 375.347 33.1336L375.347 51.001L369.681 51.001Z"></path>
  <defs>
    <linearGradient id="gradient_1" gradientUnits="userSpaceOnUse" x1="-72.012268" y1="0.20510101" x2="72.012268" y2="0.20510101">
      <stop offset="0" stop-color="#878787"></stop>
      <stop offset="1" stop-color="#82A473"></stop>
    </linearGradient>
  </defs>
  <path fill="url(#gradient_1)" transform="matrix(0.92388 0.382683 -0.382683 0.92388 128 116.5)" d="M-3.14722e-06 -71.7949L50.9117 -50.7066L72 0.205101L50.9117 51.1168L-3.14722e-06 72.2051L-50.9117 51.1168L-72 0.205095L-50.9117 -50.7066L-3.14722e-06 -71.7949Z"></path>
  <path fill="#0A0A0A" transform="matrix(0.831492 0.344415 -0.344415 0.831492 128 116.5)" d="M1.19804e-05 -74.7949L53.033 -52.8279L75 0.205101L53.033 53.2381L1.19804e-05 75.2051L-53.033 53.2381L-75 0.205094L-53.033 -52.8279L1.19804e-05 -74.7949Z"></path>
  <path fill="white" transform="translate(107 70.5)" d="M5.62621 71.4014L5.62621 20.2723L37.3643 20.2723L37.3643 28.3875L14.2433 28.3875L14.2433 42.0804L35.5443 42.0804L35.5443 50.1956L14.3833 50.1956L14.3833 71.4014L5.62621 71.4014Z"></path>
</svg>